<svg xmlns="http://www.w3.org/2000/svg" xmlns:xlink="http://www.w3.org/1999/xlink" width="500" zoomAndPan="magnify" viewBox="0 0 375 374.999991" height="500" preserveAspectRatio="xMidYMid meet" version="1.0"><defs><clipPath id="7f16bb4778"><path d="M 125 125 L 232 125 L 232 262.5 L 125 262.5 Z M 125 125 " clip-rule="nonzero"/></clipPath><clipPath id="f90611b10c"><path d="M 112.5 112.5 L 219 112.5 L 219 250 L 112.5 250 Z M 112.5 112.5 " clip-rule="nonzero"/></clipPath><clipPath id="e5ab6645a8"><path d="M 203 234 L 232 234 L 232 262.5 L 203 262.5 Z M 203 234 " clip-rule="nonzero"/></clipPath><clipPath id="ffc6d94642"><path d="M 193 143 L 262.5 143 L 262.5 213 L 193 213 Z M 193 143 " clip-rule="nonzero"/></clipPath></defs><g clip-path="url(#7f16bb4778)"><path fill="#ffffff" d="M 206.25 262.5 L 128.125 262.5 C 126.398438 262.5 125 261.101562 125 259.375 L 125 128.125 C 125 126.398438 126.398438 125 128.125 125 L 228.125 125 C 229.851562 125 231.25 126.398438 231.25 128.125 L 231.25 146.875 C 231.25 148.601562 229.851562 150 228.125 150 C 226.398438 150 225 148.601562 225 146.875 L 225 131.25 L 131.25 131.25 L 131.25 256.25 L 204.957031 256.25 L 225 236.207031 L 225 209.375 C 225 207.648438 226.398438 206.25 228.125 206.25 C 229.851562 206.25 231.25 207.648438 231.25 209.375 L 231.25 237.5 C 231.25 238.328125 230.921875 239.125 230.335938 239.710938 L 208.460938 261.585938 C 207.875 262.171875 207.078125 262.5 206.25 262.5 Z M 206.25 262.5 " fill-opacity="1" fill-rule="nonzero"/></g><g clip-path="url(#f90611b10c)"><path fill="#ffffff" d="M 128.125 250 L 115.625 250 C 113.898438 250 112.5 248.601562 112.5 246.875 L 112.5 115.625 C 112.5 113.898438 113.898438 112.5 115.625 112.5 L 215.625 112.5 C 217.351562 112.5 218.75 113.898438 218.75 115.625 L 218.75 128.125 C 218.75 129.851562 217.351562 131.25 215.625 131.25 C 213.898438 131.25 212.5 129.851562 212.5 128.125 L 212.5 118.75 L 118.75 118.75 L 118.75 243.75 L 128.125 243.75 C 129.851562 243.75 131.25 245.148438 131.25 246.875 C 131.25 248.601562 129.851562 250 128.125 250 Z M 128.125 250 " fill-opacity="1" fill-rule="nonzero"/></g><g clip-path="url(#e5ab6645a8)"><path fill="#ffffff" d="M 206.25 262.5 C 204.523438 262.5 203.125 261.101562 203.125 259.375 L 203.125 237.5 C 203.125 235.773438 204.523438 234.375 206.25 234.375 L 228.125 234.375 C 229.851562 234.375 231.25 235.773438 231.25 237.5 C 231.25 239.226562 229.851562 240.625 228.125 240.625 L 209.375 240.625 L 209.375 259.375 C 209.375 261.101562 207.976562 262.5 206.25 262.5 Z M 206.25 262.5 " fill-opacity="1" fill-rule="nonzero"/></g><g clip-path="url(#ffc6d94642)"><path fill="#ffffff" d="M 228.125 212.5 C 209.171875 212.5 193.75 197.078125 193.75 178.125 C 193.75 159.171875 209.171875 143.75 228.125 143.75 C 247.078125 143.75 262.5 159.171875 262.5 178.125 C 262.5 197.078125 247.078125 212.5 228.125 212.5 Z M 228.125 150 C 212.617188 150 200 162.617188 200 178.125 C 200 193.632812 212.617188 206.25 228.125 206.25 C 243.632812 206.25 256.25 193.632812 256.25 178.125 C 256.25 162.617188 243.632812 150 228.125 150 Z M 228.125 150 " fill-opacity="1" fill-rule="nonzero"/></g><path fill="#ffffff" d="M 228.125 193.75 C 226.398438 193.75 225 192.351562 225 190.625 L 225 165.625 C 225 163.898438 226.398438 162.5 228.125 162.5 C 229.851562 162.5 231.25 163.898438 231.25 165.625 L 231.25 190.625 C 231.25 192.351562 229.851562 193.75 228.125 193.75 Z M 228.125 193.75 " fill-opacity="1" fill-rule="nonzero"/><path fill="#ffffff" d="M 240.625 181.25 L 215.625 181.25 C 213.898438 181.25 212.5 179.851562 212.5 178.125 C 212.5 176.398438 213.898438 175 215.625 175 L 240.625 175 C 242.351562 175 243.75 176.398438 243.75 178.125 C 243.75 179.851562 242.351562 181.25 240.625 181.25 Z M 240.625 181.25 " fill-opacity="1" fill-rule="nonzero"/><path fill="#ffffff" d="M 196.875 228.125 L 140.625 228.125 C 138.898438 228.125 137.5 226.726562 137.5 225 C 137.5 223.273438 138.898438 221.875 140.625 221.875 L 196.875 221.875 C 198.601562 221.875 200 223.273438 200 225 C 200 226.726562 198.601562 228.125 196.875 228.125 Z M 196.875 228.125 " fill-opacity="1" fill-rule="nonzero"/><path fill="#ffffff" d="M 196.875 212.5 L 140.625 212.5 C 138.898438 212.5 137.5 211.101562 137.5 209.375 C 137.5 207.648438 138.898438 206.25 140.625 206.25 L 196.875 206.25 C 198.601562 206.25 200 207.648438 200 209.375 C 200 211.101562 198.601562 212.5 196.875 212.5 Z M 196.875 212.5 " fill-opacity="1" fill-rule="nonzero"/><path fill="#ffffff" d="M 178.125 196.875 L 140.625 196.875 C 138.898438 196.875 137.5 195.476562 137.5 193.75 C 137.5 192.023438 138.898438 190.625 140.625 190.625 L 178.125 190.625 C 179.851562 190.625 181.25 192.023438 181.25 193.75 C 181.25 195.476562 179.851562 196.875 178.125 196.875 Z M 178.125 196.875 " fill-opacity="1" fill-rule="nonzero"/><path fill="#ffffff" d="M 178.125 181.25 L 140.625 181.25 C 138.898438 181.25 137.5 179.851562 137.5 178.125 C 137.5 176.398438 138.898438 175 140.625 175 L 178.125 175 C 179.851562 175 181.25 176.398438 181.25 178.125 C 181.25 179.851562 179.851562 181.25 178.125 181.25 Z M 178.125 181.25 " fill-opacity="1" fill-rule="nonzero"/><path fill="#ffffff" d="M 178.125 165.625 L 140.625 165.625 C 138.898438 165.625 137.5 164.226562 137.5 162.5 C 137.5 160.773438 138.898438 159.375 140.625 159.375 L 178.125 159.375 C 179.851562 159.375 181.25 160.773438 181.25 162.5 C 181.25 164.226562 179.851562 165.625 178.125 165.625 Z M 178.125 165.625 " fill-opacity="1" fill-rule="nonzero"/></svg>